<?xml version="1.0" standalone="no"?>
<!DOCTYPE svg PUBLIC "-//W3C//DTD SVG 20010904//EN"
 "http://www.w3.org/TR/2001/REC-SVG-20010904/DTD/svg10.dtd">
<svg version="1.0" xmlns="http://www.w3.org/2000/svg"
 width="750.000000pt" height="750.000000pt" viewBox="0 0 750.000000 750.000000"
 preserveAspectRatio="xMidYMid meet">
<metadata>
Created by potrace 1.11, written by Peter Selinger 2001-2013
</metadata>
<g transform="translate(0.000000,750.000000) scale(0.100000,-0.100000)"
fill="#000000" stroke="none">
<path d="M3870 6017 c-52 -30 -123 -70 -157 -90 -35 -21 -90 -53 -123 -72 -33
-19 -88 -51 -122 -72 -35 -20 -103 -58 -153 -85 -49 -28 -125 -71 -168 -96
-42 -26 -85 -51 -95 -57 -10 -5 -32 -20 -49 -32 -17 -13 -34 -23 -38 -23 -3 0
-21 -11 -38 -24 -18 -13 -63 -41 -100 -62 -99 -56 -86 -48 -277 -173 -63 -41
-116 -79 -118 -83 -2 -4 -20 -17 -40 -30 -20 -12 -61 -40 -89 -61 l-53 -39 0
-1787 c0 -1377 3 -1790 12 -1799 14 -14 154 -16 163 -2 3 5 70 61 149 124 79
63 167 134 194 158 28 24 81 68 119 98 133 108 227 186 308 255 46 39 109 90
140 115 32 25 76 61 99 80 23 20 64 53 91 75 28 21 71 57 96 79 26 23 72 61
103 86 31 25 89 72 129 105 40 34 89 73 110 89 l37 28 -2 1672 c-3 1476 -5
1671 -18 1673 -8 2 -58 -21 -110 -50z"/>
<path d="M4605 6012 c-6 -4 -46 -24 -90 -44 -204 -92 -261 -121 -277 -135 -17
-15 -18 -105 -18 -1624 l0 -1609 -27 -17 c-16 -9 -61 -42 -102 -73 -41 -30
-85 -62 -97 -70 -72 -48 -234 -162 -329 -230 -60 -44 -148 -106 -194 -137 -46
-32 -107 -74 -135 -93 -88 -60 -166 -122 -166 -131 0 -12 26 -11 48 0 9 6 58
29 107 52 244 113 451 212 459 220 6 5 15 9 22 9 6 0 83 34 170 76 88 41 193
91 234 110 41 20 83 40 93 45 9 5 25 13 35 18 9 5 70 33 135 63 65 29 126 60
136 69 17 16 18 73 24 1045 4 566 10 1345 14 1731 5 563 4 705 -7 718 -14 17
-22 19 -35 7z"/>
<path d="M5155 5373 c-22 -2 -49 -8 -60 -13 -11 -5 -38 -11 -60 -14 -134 -17
-173 -24 -183 -30 -8 -5 -10 -409 -5 -1494 l6 -1487 -59 -28 c-33 -15 -64 -27
-68 -27 -5 0 -45 -18 -90 -39 -75 -36 -138 -66 -411 -194 -55 -26 -103 -47
-108 -47 -8 0 -126 -55 -313 -146 -61 -30 -114 -54 -117 -54 -4 0 -38 -16 -78
-35 -39 -19 -80 -37 -91 -41 -11 -3 -68 -29 -127 -56 -147 -69 -287 -135 -343
-161 -26 -12 -48 -25 -48 -29 0 -8 106 1 144 13 16 5 46 9 67 9 21 0 41 5 44
10 3 6 32 10 64 10 32 0 61 3 65 7 4 4 22 9 39 9 31 2 101 13 217 33 30 5 107
17 170 26 63 9 138 21 165 25 28 5 100 16 160 25 61 9 133 20 160 25 28 5 100
16 160 25 115 17 182 28 275 44 90 16 121 21 195 31 39 5 97 14 130 20 33 6
79 13 102 16 l41 6 7 76 c6 71 23 1961 28 3027 2 454 2 460 -18 461 -11 1 -38
-1 -60 -3z"/>
</g>
</svg>
