<?xml version="1.0" standalone="no"?>
<!DOCTYPE svg PUBLIC "-//W3C//DTD SVG 20010904//EN"
 "http://www.w3.org/TR/2001/REC-SVG-20010904/DTD/svg10.dtd">
<svg version="1.0" xmlns="http://www.w3.org/2000/svg"
 width="750.000000pt" height="750.000000pt" viewBox="0 0 750.000000 750.000000"
 preserveAspectRatio="xMidYMid meet">
<metadata>
Created by potrace 1.11, written by Peter Selinger 2001-2013
</metadata>
<g transform="translate(0.000000,750.000000) scale(0.100000,-0.100000)"
fill="#000000" stroke="none">
<path d="M1808 6069 c-160 -37 -307 -194 -338 -358 -14 -73 -14 -2828 0 -2902
23 -125 120 -254 235 -316 118 -62 128 -63 841 -63 l644 0 2 -487 3 -488 375
0 375 0 3 488 2 487 339 0 339 0 165 -257 c90 -142 226 -355 302 -473 76 -118
144 -223 153 -232 13 -16 37 -18 211 -18 214 0 299 10 367 41 58 28 117 86
151 151 l28 53 3 1528 2 1527 -380 0 -380 0 -2 -1015 -3 -1015 -178 278 -177
278 0 1177 0 1177 -120 0 -120 0 -2 -987 -3 -986 -107 168 -108 169 0 1043 0
1043 -1292 -1 c-711 -1 -1310 -5 -1330 -10z m2382 -966 l0 -736 -122 191 -123
192 -377 0 -378 0 0 -695 0 -695 -630 0 -630 0 0 1240 0 1240 1130 0 1130 0 0
-737z m-196 -1685 l37 -58 -41 0 -40 0 0 62 c0 34 2 59 4 57 2 -2 20 -30 40
-61z m-804 -518 l0 -221 -667 3 c-603 3 -671 5 -699 20 -91 50 -136 148 -114
247 10 46 21 65 59 101 26 25 62 51 81 57 24 7 241 11 688 12 l652 1 0 -220z
m1045 143 c27 -43 89 -140 137 -215 48 -75 88 -139 88 -142 0 -3 -115 -6 -255
-6 l-255 0 0 220 0 220 118 0 119 0 48 -77z"/>
<path d="M2370 5510 l0 -120 690 0 690 0 0 120 0 120 -690 0 -690 0 0 -120z"/>
<path d="M2372 5053 l3 -118 458 -3 457 -2 0 120 0 120 -460 0 -461 0 3 -117z"/>
<path d="M2370 4600 l0 -120 235 0 235 0 0 120 0 120 -235 0 -235 0 0 -120z"/>
</g>
</svg>
